<?xml version="1.0" encoding="utf-8"?>
<!-- Generator: Adobe Illustrator 27.5.0, SVG Export Plug-In . SVG Version: 6.00 Build 0)  -->
<svg version="1.1" id="Layer_17" xmlns="http://www.w3.org/2000/svg" xmlns:xlink="http://www.w3.org/1999/xlink" x="0px" y="0px"
	 viewBox="0 0 450 305.167" style="enable-background:new 0 0 450 305.167;" xml:space="preserve">
<g>
	<g>
		<path style="fill:#FB4467;" d="M276.49,71.82c-1.615-5.603-1.47-11.605-6.471-11.807c-1.954-0.072-8.482,0.637-15.751,1.598
			l-2.818,0.381c-3.732,0.514-7.533,1.076-10.899,1.618c-1.243,0.198-2.426,0.396-3.522,0.584c-4.371,0.757-7.424,1.414-7.588,1.76
			c-0.57,1.174-3.405,24.122-3.405,24.122s3.083,0.147,8.501,1.473c5.407,1.322,6.207,6.814,6.207,6.814
			c3.824,0.787,5.15,5.211,5.15,5.211c0.225,2.986,0.366,6.404,2.145,7.787c0.475,0.375,1.077,0.605,1.828,0.633
			c3.528,0.149,34.86,0,34.86,0S278.109,77.425,276.49,71.82z"/>
		<path style="fill:#F96282;" d="M284.727,111.994c0,0-31.332,0.149-34.86,0c-0.751-0.028-1.353-0.258-1.828-0.633
			c-1.898-8.685-2.92-34.975-1.707-42.015c0.706-4.071,2.86-6.186,5.616-7.425c8.159-1.111,15.909-1.989,18.071-1.908
			c5.001,0.202,4.856,6.204,6.471,11.807C278.109,77.425,284.727,111.994,284.727,111.994z"/>
		<path style="fill:#0B2753;" d="M253.542,70.056c2.798,0.016,2.798-3.957,0-3.81C250.748,66.392,250.748,70.04,253.542,70.056z"/>
		<path style="fill:#0B2753;" d="M267.665,68.746c2.056-0.293,2.413-4.435-0.443-4.118
			C263.912,64.996,265.603,69.043,267.665,68.746z"/>
		<path style="fill:#EFB335;" d="M231.314,51.138c1.707-3.722,5.788-4.53,11.123-1.218c4.53,2.808,9.497,11.973,9.512,12
			c0.168-0.022-0.164,0.025,0,0c0.779-0.106,1.551-0.211,2.32-0.31c-2.805-9.489-13.961-16.989-17.913-16.853
			c-3.945,0.138-8.999,4.128-7.818,8.398c1.009,3.654,6.837,9.446,8.493,11.039c1.096-0.188,2.279-0.386,3.522-0.584
			C236.531,60.384,230.007,53.98,231.314,51.138z"/>
		<path style="fill:#0B2753;" d="M251.444,61.992l2.824-0.381c-0.768,0.099-1.541,0.203-2.32,0.31
			C251.785,61.945,251.61,61.965,251.444,61.992z"/>
		<path style="fill:#70A5FF;" d="M321.1,135.77c-0.113-1.129-0.287-2.306-0.511-3.503c-0.253-1.314-0.553-2.654-0.909-3.972
			c-0.359-1.345-0.762-2.671-1.2-3.939c-0.783-2.278-1.666-4.36-2.551-5.996c-0.221-0.397-0.434-0.767-0.649-1.112
			c-4.118-6.529-14.153-6.136-33.162-6.722c-0.585-0.018-1.153-0.036-1.724-0.054c-12.976-0.458-21.445-1.324-26.497-0.971
			c-1.917,0.136-3.335,0.446-4.326,1.026c-2.56,1.482-2.277,4.04-2.219,13.103c0,0.222,0.004,0.447,0.01,0.675
			c0.036,1.884,0.172,3.957,0.385,6.072c0.811,8.089,2.751,16.836,4.573,18.201c2.356,1.767,17.234,0.67,29.798,0.824
			c12.568,0.154,32.626-1.808,37.203-4.942c0.911-0.629,1.462-1.839,1.726-3.411C321.305,139.56,321.3,137.75,321.1,135.77z"/>
		<path style="fill:#FCB041;" d="M252.314,137.594c-1.173-4.122-2.354-6.279-7.203-6.055c-4.852,0.22-33.198,1.933-40.652,3.249
			c-6.107,1.078-6.42,2.67-5.914,5.154c2.611-0.486,6.299-1.018,11.557-1.808C225.062,135.88,244.665,136.414,252.314,137.594z"/>
		<path style="fill:#EFB335;" d="M263.359,177.604c-1.319,0.783-19.279,0-33.917,1.174c-14.642,1.179-28.723,2.652-29.846,1.179
			c-1.126-1.477-2.411-5.876-3.579-11.148c-0.366-1.624-0.715-3.325-1.049-5.057c-0.904-4.667-1.675-9.496-2.177-13.299
			c-0.021-0.146-0.036-0.293-0.053-0.439c-0.426-3.324-0.619-5.785-0.479-6.539c0.355-1.905,1.466-2.642,6.284-3.536
			c2.615-0.484,6.303-1.013,11.561-1.806c7.488-1.131,16.136-1.559,23.867-1.559c7.724,0,14.532,0.428,18.351,1.018
			c7.124,1.093,7.61,2.697,8.595,8.765c0.017,0.142,0.043,0.285,0.064,0.431c0.053,0.311,0.104,0.641,0.162,0.981
			C262.316,155.01,264.676,176.821,263.359,177.604z"/>
		<path style="fill:#EE4C6D;" d="M150.126,240.42c-0.63-4.754-3.888-20.366-5.218-26.654c0.14,1.607,0.062,3.543,0.036,6.007
			c-0.004,0.349-0.011,0.719-0.028,1.122c-0.262,8.393-2.339,27.667-4.279,30.851c-0.353,0.58-0.87,1.013-1.498,1.347
			c0,0,7.652-1.153,10.987-2.526C153.461,249.193,150.927,246.434,150.126,240.42z"/>
		<path style="fill:#FFFFFF;" d="M224.266,167.796c-0.709,0.183-24.086,0.887-28.251,1.013c-0.366-1.624-0.715-3.325-1.049-5.057
			c6.222,0.924,14.566-0.093,21.069-0.272c7.058-0.192,7.648-0.647,8.231,0.663C224.858,165.443,225.049,167.599,224.266,167.796z"
			/>
		<path style="fill:#F86181;" d="M144.909,213.766c-0.317-1.519-0.528-2.495-0.56-2.642c0-0.005-0.004-0.009-0.004-0.009
			c-0.747-1.875-2.324-3.284-5.59-4.875c-6.869-3.336-26.091-5.883-34.719-4.907c-1.343,0.158-2.243,1.049-2.864,2.454
			c-1.077,2.437-1.289,6.425-1.462,10.757c-0.093,2.312-0.179,4.719-0.383,7.047c-0.787,9.165-3.924,22.699,0,26.231
			c1.953,1.754,6.358,2.778,11.197,3.487c4.907,0.726,10.255,1.117,13.91,1.613c3.428,0.465,6.784,0.97,9.576,1.024
			c2.09,0.047,3.858-0.178,5.13-0.851c0.628-0.334,1.145-0.767,1.498-1.347c1.941-3.184,4.018-22.458,4.279-30.851
			c0.017-0.402,0.023-0.772,0.028-1.122C144.97,217.309,145.049,215.373,144.909,213.766z"/>
		<path style="fill:#0B2753;" d="M192.258,128.47c-1.613-3.012-4.828-5.029-9.093-6.29c-0.338-0.101-0.687-0.197-1.049-0.292
			c-0.809-0.208-1.66-0.394-2.537-0.556c-1.675-0.308-3.454-0.534-5.318-0.681c-3.358-0.259-6.99-0.277-10.746-0.104
			c-5.226,0.235-10.344,0.71-14.881,1.362c-0.621,0.089-1.219,0.183-1.817,0.278c-0.985,0.156-1.936,0.323-2.85,0.496
			c-1.172,0.221-2.29,0.456-3.33,0.704c-3.249,0.772-5.771,1.66-7.207,2.602c-4.045,2.669-4.045,11.606-2.719,18.959
			c1.321,7.354,2.5,10.889,5.443,10.889c0,0,30.742-2.063,42.659-2.063c11.914,0,15.74-0.882,15.74-0.882
			C196.026,151.272,195.879,135.239,192.258,128.47z"/>
		<path style="fill:#69A6FF;" d="M227.801,82.723c-0.047,0.812-0.13,1.511-0.236,2.133c-0.494,0.084-0.843,0.07-0.843,0.07
			l-0.685,2.504c0.162,0.1,0.328,0.182,0.492,0.264c-1.164,1.599-3.024,1.34-5.205,1.087c-0.317-0.036-0.636-0.07-0.964-0.099
			c-3.918-0.369-12.861-1.106-21.243-0.229c-1.494,0.151-2.668,0.235-3.592,0.229c-4.305-0.018-3.245-1.795-2.879-5.668
			c0.328-3.518,1.883-12.698,3.209-19.204c0.062-0.337,0.136-0.666,0.198-0.991c0.372-1.776,0.721-3.3,1.002-4.373
			c1.326-5,2.013-6.534,3.971-6.765c1.692-0.193,3.277-0.328,4.767-0.417c5.32-0.314,9.369,0,12.121,0.387
			c2.843,0.412,4.299,0.912,4.299,0.912s1.679,1.926,3.049,4.75c0.1,0.193,0.187,0.391,0.281,0.6
			c0.287,0.642,0.547,1.315,0.766,2.03c0.017,0.02,0.021,0.047,0.027,0.067c0.004,0.019,0.009,0.032,0.015,0.048
			c0.73,2.4,1.236,6.925,1.468,11.759C227.988,75.549,227.994,79.456,227.801,82.723z"/>
		<g>
			<path style="fill:#0B61D6;" d="M204.998,45.063c0,0-0.592-0.735-2.207,0c-1.619,0.735-1.766,6.62-1.766,6.62
				c1.692-0.195,3.277-0.328,4.767-0.417C204.334,48.523,204.998,45.063,204.998,45.063z"/>
			<path style="fill:#0B61D6;" d="M226.313,59.946c-1.849-5.585-3.513-12.808-3.513-14.297c0-1.763-3.535-0.586-4.122,0.737
				c-0.381,0.86-0.639,3.509-0.775,5.271c2.856,0.408,4.307,0.908,4.307,0.908S224.998,55.755,226.313,59.946z"/>
			<path style="fill:#0B61D6;" d="M227.356,62.863c-0.338-0.862-0.683-1.827-1.021-2.847c0.004,0.016,0.009,0.029,0.015,0.045
				c0.73,2.4,1.243,6.925,1.468,11.759c2.258,2.892,4.003,6.399,3.366,9.578c-0.513,2.565-2.475,3.266-3.62,3.459
				c-0.223,1.306-0.579,2.213-1.032,2.84c3.747,1.921,8.361,0.097,9.067-4.973C236.334,77.425,229.565,68.453,227.356,62.863z"/>
		</g>
		<path style="fill:#69A6FF;" d="M226.313,59.946c0.006,0.023,0.015,0.047,0.021,0.07C226.328,59.993,226.32,59.969,226.313,59.946z
			"/>
		<path style="fill:#69A6FF;" d="M226.726,84.927l-0.689,2.504c0.162,0.1,0.328,0.18,0.496,0.266
			c0.453-0.627,0.809-1.534,1.032-2.84C227.071,84.941,226.726,84.927,226.726,84.927z"/>
		<path style="fill:#123772;" d="M221.323,88.782c-0.317-0.036-0.636-0.07-0.964-0.099c-3.918-0.369-12.861-1.106-21.243-0.229
			c-1.494,0.151-2.668,0.235-3.592,0.229c-0.177-3.419-0.553-10.898,1.53-12.286c2.645-1.764,18.388-1.617,20.741-0.444
			C219.861,76.992,221.704,84.481,221.323,88.782z"/>
		<path style="fill:#0B2753;" d="M201.025,94.247c11.091,0.53,34.032,0.586,40.503,4.118c0,0-1.177-6.28-5.878-8.042
			c-4.698-1.764-20.601-3.529-33.743-1.879c-9.725,1.221-11.706,5.422-12.082,7.527C192.183,94.35,196.005,94.004,201.025,94.247z"
			/>
		<path style="fill:#0C3673;" d="M247.024,114.053c0.192-9.02,0.975-12.16-5.496-15.688c-6.471-3.531-29.412-3.588-40.503-4.118
			c-5.02-0.244-8.842,0.102-11.199,1.723c-1.207,0.823-2.03,1.98-2.432,3.57c-1.175,4.708-0.2,23.146,1.764,29.815
			c1.962,6.668,3.924,7.454,11.868,6.866c7.946-0.589,39.918-1.57,44.036-1.57C249.178,134.65,246.824,123.078,247.024,114.053z"/>
		<g>
			<path style="fill:#120105;" d="M222.564,131.909c-4.547,0-9.248-0.052-13.025-0.094c-2.532-0.029-4.739-0.052-6.399-0.056
				c-9.25-0.027-9.776-4.093-10.508-9.724c-0.068-0.51-0.136-1.034-0.209-1.573c-0.86-6.08-1.253-19.065,0.49-20.161
				c1.562-0.981,7.456-2.438,17.294-2.438c2.479,0,5.073,0.095,7.714,0.282c16.164,1.13,22.969,2.691,23.48,5.387
				c0.509,2.661,2.643,24.677,1.756,26.826C242.839,131.126,240.143,131.909,222.564,131.909z M210.207,98.308
				c-9.746,0-15.538,1.415-17.057,2.367c-1.315,0.825-1.294,12.641-0.292,19.729c0.079,0.54,0.147,1.061,0.213,1.573
				c0.726,5.61,1.209,9.316,10.07,9.338c1.664,0.004,3.873,0.03,6.405,0.057c3.771,0.041,8.476,0.094,13.019,0.094
				c17.104,0,19.986-0.798,20.186-1.274c0.787-1.912-1.164-23.335-1.779-26.579c-0.583-3.047-11.995-4.251-23.082-5.028
				C215.261,98.402,212.675,98.308,210.207,98.308z"/>
		</g>
		<path style="fill:#4589FC;" d="M190.728,99.933c-1.566,0.197-0.981,9.414,0,9.611c0.981,0.197,8.435,0,10.297-0.785
			c1.864-0.785-0.489-7.649-1.079-8.826C199.361,98.756,190.728,99.933,190.728,99.933z"/>
		<path style="fill:#4589FC;" d="M231.314,101.011c-0.592,0.375-0.502,8.38,0,8.603c0.506,0.222,9.231-0.658,10.214-1.05
			c0.981-0.393-0.883-7.945-1.466-8.043C239.472,100.424,232.084,100.522,231.314,101.011z"/>
		<path style="fill:#4589FC;" d="M193.864,122.389c-0.683,0.099-0.489,7.847,0,8.044c0.492,0.197,8.633-0.392,10.203-1.665
			c1.568-1.277-2.024-7.357-2.337-7.261C201.418,121.607,193.864,122.389,193.864,122.389z"/>
		<path style="fill:#4589FC;" d="M234.274,118.566c-0.33,0.932,0.098,7.394,0.683,7.421c0.589,0.032,8.925-0.555,9.812-0.947
			c0.881-0.395-0.1-6.965-0.987-7.553C242.898,116.899,234.655,117.476,234.274,118.566z"/>
		<path style="fill:#FFFCFB;" d="M194.554,103.856c-1.764,0.906-1.768,3.157-1.134,5.747c0.643,2.589,1.326,5.334,2.9,5.041
			c1.57-0.295,2.941-0.686,3.234-1.962c0.296-1.273-1.077-7.119-1.864-8.169C196.907,103.465,195.505,103.368,194.554,103.856z"/>
		<path style="fill:#FFFCFB;" d="M234.957,104.512c-0.585,0.839-0.394,3.364-0.394,5.815c0,2.453,0.643,3.726,1.792,3.726
			c1.153,0,3.053,0,3.281-1.272c0.226-1.273-0.655-7.284-1.245-7.712C237.8,104.639,235.323,103.994,234.957,104.512z"/>
		<path style="fill:#FFFCFB;" d="M196.311,124.942c-0.281,0.329,0.498,8.53,1.185,9.416c0.683,0.881,4.254,0.292,4.234-0.689
			c-0.017-0.982-1.411-8.335-2.136-8.727C198.871,124.55,196.994,124.157,196.311,124.942z"/>
		<path style="fill:#FFFCFB;" d="M237.508,121.507c-0.194,0.72,0.391,7.532,0.683,8.132c0.3,0.597,4.024,1.067,4.224,0
			c0.194-1.07-0.79-7.934-1.572-8.719C240.062,120.135,237.723,120.703,237.508,121.507z"/>
		<path style="fill:#F86181;" d="M149.099,131.267c-0.589,0.736-4.415,1.028-6.352,0c-1.445-0.767-1.947-5.285-2.109-7.881
			c2.33-0.559,5.043-1.052,7.997-1.478C148.986,125.2,149.511,130.757,149.099,131.267z"/>
		<path style="fill:#F86181;" d="M183.165,122.18c-0.262,3.284-0.762,8.487-1.262,9.087c-0.736,0.883-6.035-0.589-6.765-1.631
			c-0.636-0.9-0.83-6.142-0.877-8.985C177.528,120.91,180.55,121.398,183.165,122.18z"/>
		<path style="fill:#0B2753;" d="M146.009,110.673c0.592-2.796,3.632-6.488,14.859-7.099c11.221-0.614,16.768,1.065,18.243,4.744
			c1.319,3.304,0.619,11.398,0.468,13.014c0.877,0.163,1.728,0.348,2.537,0.556c0.157-1.866,0.521-6.763,0.521-11.511
			c0-6.032-3.381-8.975-12.942-8.975c-9.561,0-20.741,1.617-24.859,5.444c-4.126,3.826-0.868,15.832-0.868,15.832
			c0.913-0.172,1.864-0.336,2.85-0.492C146.724,118.836,145.592,112.653,146.009,110.673z"/>
		<path style="fill:#0D3872;" d="M155.57,100.49c-0.843,0.408-1.173,8.548,0.592,8.63c1.764,0.081,14.119,1.093,15.887,0
			c1.764-1.096,0.736-7.638,0-8.63C171.312,99.493,157.779,99.425,155.57,100.49z"/>
		<path style="fill:#70A5FF;" d="M208.532,247.038c0,0-0.377,0-1.281,0h-32.989c-5.86,0-10.325-0.036-13.723-0.114
			c-12.493-0.303-10.714-1.253-11.287-3.565c-0.157-0.621-0.987-4.16-2.226-9.436c-3.913-16.774-11.836-51.126-14.728-65.092
			c-0.502-2.4-0.847-4.202-0.996-5.204c-1.326-8.677,2.671-8.711,9.335-8.826c0,0,0.615-0.038,1.713-0.104
			c5.96-0.382,26.097-1.613,37.639-1.852c3.024-0.066,5.46-0.059,6.897,0.046c7.927,0.59,8.546,7.945,8.546,7.945
			s0.447,1.685,1.209,4.567c3.309,12.442,12.517,47.148,16.9,64.283c1.068,4.182,1.851,7.313,2.198,8.822
			C217.795,247.623,208.532,247.038,208.532,247.038z"/>
		<path style="fill:#4387FB;" d="M312.712,238.182l-0.181-2.193l-6.227-75.093l-0.774-9.306c-0.194-2.265-1.945-3.973-3.913-3.808
			l-37.231,3.088c-1.973,0.168-3.417,2.132-3.23,4.403l2.202,26.553l3.628,43.694l1.358,16.346c0.183,2.265,1.934,3.973,3.907,3.805
			l37.231-3.09C311.454,242.424,312.901,240.452,312.712,238.182z"/>
		<g>
			<path style="fill:#4387FB;" d="M325.082,221.736c-0.781-3.336-3.918-40.406-5.003-46.684c-0.983-5.662-4.105-6.217-6.58-6.232
				c1.598,11.101,4.86,38.929,5.503,49.189c0.334,5.319,0.736,8.773,0.94,11.086C321.851,227.721,325.684,224.272,325.082,221.736z"
				/>
			<path style="fill:#70A5FF;" d="M319.943,229.095c-0.204-2.313-0.606-5.768-0.94-11.086c-0.643-10.26-3.905-38.087-5.503-49.189
				c-0.353-2.474-0.63-4.123-0.77-4.551c-0.783-2.354-6.431-3.472-6.424-3.373l6.227,75.093c0.008-0.052,4.515-0.918,6.471-2.067
				C320.134,233.259,320.223,232.237,319.943,229.095z"/>
		</g>
		<path style="fill:#0D3872;" d="M286.934,174.858c-3.026,0.33-4.998-1.179-4.805,13.534c0.198,14.711,2.745,31.773,3.724,32.561
			c0.983,0.783,5.89,1.373,6.082-1.57C292.133,216.438,289.843,174.541,286.934,174.858z"/>
		<path style="fill:#70A5FF;" d="M266.987,225.52l-3.628-43.694c3.449-0.004,9.214,1.816,11.516,12.255
			C277.69,206.867,279.622,223.798,266.987,225.52z"/>
		<path style="fill:#70A5FF;" d="M144.804,212.836c-0.096-0.615-0.245-1.179-0.455-1.712c0.032,0.147,0.243,1.122,0.56,2.642
			C144.881,213.447,144.851,213.133,144.804,212.836z"/>
		<path style="fill:#70A5FF;" d="M144.345,211.104c0,0,0.004,0.015,0.004,0.02C144.349,211.115,144.345,211.104,144.345,211.104z"/>
		<path style="fill:#70A5FF;" d="M144.945,219.773c-0.004,0.349-0.011,0.719-0.028,1.122c-0.885,1.602-2.677,5.313-4.054,11.206
			c-1.915,8.168-1.77,17.219-5.888,21.003c-0.323,0.303-0.647,0.584-0.966,0.841c-3.711,3.095-7.02,3.826-11.069,1.184
			c-4.405-2.865-5.907-1.982-8.706-2.025c-1.336-0.016-2.5-0.224-3.711-1.796c-1.347-1.722-2.756-5.082-4.524-11.628
			c-2.021-7.463-4.62-17.923-6.29-25.136c0.172-4.331,0.385-8.319,1.462-10.757c1.59,5.809,4.201,16.749,5.563,21.734
			c1.619,5.923,5.001,20.411,7.063,21.404c2.056,0.996,4.652,0.408,7.401,0.996c2.745,0.59,5.92,3.973,9.848,1.765
			c3.93-2.208,4.667-7.088,5.109-13.701c0.423-6.327,3.632-17.797,8.65-23.148C145.085,214.616,144.977,216.814,144.945,219.773z"/>
		<path style="fill:#0D3872;" d="M322.928,121.507c0-1.769-2.726-3.056-6.999-3.147c0.885,1.636,1.768,3.718,2.551,5.996
			C320.875,124.023,322.928,123.047,322.928,121.507z"/>
		<path style="fill:#0D3872;" d="M325.145,138.134c-0.417-2.081-1.849-2.308-4.045-2.364c0.2,1.98,0.204,3.79-0.053,5.279
			C322.892,140.673,325.49,139.833,325.145,138.134z"/>
		<path style="fill:#4387FB;" d="M320.59,132.267c-5.956,0.817-22.288,2.92-37.479,3.464c-17.564,0.63-27.416,0.436-35.362-5.355
			c-0.213-2.115-0.349-4.188-0.385-6.072c3.931,3.686,8.731,5.495,17.996,5.204c9.531-0.302,44.504-1.209,54.322-1.213
			C320.036,129.613,320.336,130.953,320.59,132.267z"/>
		<path style="fill:#4387FB;" d="M279.582,125.343c-3.081-0.064-21.771-0.5-22.95-0.856c-0.977-0.293-2.068-10.467-2.734-14.987
			c5.052-0.352,13.521,0.514,26.497,0.971c0.449,1.735,1.436,5.785,1.724,9.072C282.499,123.863,282.78,125.411,279.582,125.343z"/>
		<path style="fill:#FFFFFF;" d="M257.811,114.053c-0.985,0.982-0.198,6.092,1.566,6.38c1.764,0.292,17.651,0.899,18.634,0.986
			c0.981,0.088,0-6.754,0-6.754L257.811,114.053z"/>
		<path style="fill:#0C3673;" d="M208.577,179.368c-2.881,0.731,0.241,13.925,1.3,24.418c1.053,10.496,4.986,41.326,6.158,41.896
			c1.174,0.568,25.691-0.998,36.279-0.804c10.591,0.198,17.245,0.391,17.841-1.373c0.6-1.764-5.954-62.957-6.797-65.901
			C262.514,174.66,221.721,176.034,208.577,179.368z"/>
		<path style="fill:#4387FB;" d="M217.201,185.057c-1.719,2.38,0.008,5.459,1.183,16.067c1.175,10.606,2.762,20.611,1.968,29.144
			c-0.794,8.529-1.968,10.799,1.368,10.151c3.334-0.642,13.829-1.899,23.39-2.056c9.557-0.152,17.324,0.547,18.247,0
			c0.924-0.548-4.641-19.374-5.975-31.143c-1.341-11.766-2.498-21.97-3.486-22.947c-0.992-0.982-10.016,0.585-21.197,0
			C221.523,183.684,218.04,183.893,217.201,185.057z"/>
		<path style="fill:#0C3673;" d="M226.622,191.921c0,1.952-1.583,3.534-3.528,3.534c-1.951,0-3.534-1.581-3.534-3.534
			c0-1.948,1.583-3.529,3.534-3.529C225.038,188.392,226.622,189.973,226.622,191.921z"/>
		<path style="fill:#0C3673;" d="M248.688,187.755c-2.794,0-4.264,6.91,0,6.91C252.953,194.666,251.487,187.755,248.688,187.755z"/>
		<path style="fill:#0C3673;" d="M225.347,230.268c-3.46,0.59-2.547,5.998,1.275,5.721
			C230.446,235.708,229.663,229.533,225.347,230.268z"/>
		<path style="fill:#0C3673;" d="M254.279,230.206c-3.828,0.21-2.945,6.352,1.179,5.784
			C259.577,235.415,258.103,229.997,254.279,230.206z"/>
		<path style="fill:#FFFFFF;" d="M223.093,191.921c-1.53,0.667-1.372,3.382-1.181,6.301c0.198,2.918,0.591,2.887,2.256,2.903
			c1.67,0.016,2.943,0.167,2.943-2.165c0-2.328-0.672-5.464-0.579-6.251C226.622,191.921,223.877,191.581,223.093,191.921z"/>
		<path style="fill:#FFFFFF;" d="M247.903,191.21c-1.402,0.141-0.879,3.362-0.687,6.204c0.198,2.844,0.687,3.434,2.551,3.135
			c1.864-0.291,1.624-0.98,1.598-3.82C251.333,193.883,251.042,190.892,247.903,191.21z"/>
		<path style="fill:#FFFFFF;" d="M226.139,233.103c-1.481-0.088-1.502-0.323-1.683,2.292c-0.189,2.619-0.779,6.738,0.841,6.935
			c1.621,0.195,3.188,0.982,3.385-1.372c0.194-2.355-0.619-6.226-0.702-7.036C227.898,233.108,226.934,233.151,226.139,233.103z"/>
		<path style="fill:#FFFFFF;" d="M253.985,232.034c-1.571,0.193-1.085,1.534-0.787,3.956c0.302,2.421,0.492,5.161,2.162,4.969
			c1.664-0.199,3.166-0.382,2.566-3.126c-0.598-2.741-1.294-5.507-1.883-5.799C255.457,231.735,253.985,232.034,253.985,232.034z"/>
		<g>
			<path style="fill:#70A5FF;" d="M149.252,138.355c-0.1,0-0.193-0.068-0.215-0.173c-0.032-0.116,0.041-0.234,0.162-0.263
				c0.683-0.162,16.8-3.932,23.895-1.552c0.113,0.039,0.177,0.164,0.136,0.279c-0.036,0.118-0.164,0.181-0.279,0.138
				c-6.977-2.338-23.486,1.525-23.648,1.566C149.282,138.352,149.267,138.355,149.252,138.355z"/>
		</g>
		<g>
			<path style="fill:#120105;" d="M144.992,128.691c-0.057,0-0.115-0.023-0.151-0.059l-4.286-4.116
				c-0.089-0.086-0.089-0.225-0.004-0.311c0.083-0.089,0.223-0.094,0.313-0.007l4.103,3.943l3.654-4.805
				c0.072-0.096,0.213-0.118,0.306-0.042c0.1,0.076,0.121,0.211,0.043,0.311l-3.798,5c-0.045,0.05-0.1,0.081-0.162,0.086
				C145.003,128.691,144.996,128.691,144.992,128.691z"/>
		</g>
		<g>
			<path style="fill:#120105;" d="M178.713,127.144c-0.058,0-0.121-0.025-0.162-0.073l-4.415-4.734
				c-0.083-0.089-0.079-0.23,0.011-0.314c0.087-0.083,0.223-0.078,0.309,0.012l4.273,4.579l3.764-3.31
				c0.094-0.08,0.23-0.07,0.313,0.019c0.076,0.094,0.068,0.232-0.019,0.313l-3.928,3.451
				C178.817,127.123,178.764,127.144,178.713,127.144z"/>
		</g>
		<g>
			<path style="fill:#120105;" d="M260.98,146.789c-14.87,2.693-51.447,3.354-64.021,3.575c-2.128,0.037-3.735,0.068-4.169,0.089
				c-0.053,0-0.089,0.004-0.109,0.004c-0.017,0.009-0.036,0.014-0.064,0.014c-0.089,0-0.172-0.066-0.198-0.16
				c-0.036-0.11,0.041-0.239,0.151-0.282c0.026-0.006,0.062-0.01,0.166-0.016c0.33-0.02,1.281-0.041,4.218-0.088
				c12.574-0.225,49.151-0.882,63.962-3.568C260.933,146.5,260.958,146.644,260.98,146.789z"/>
		</g>
		<g>
			<path style="fill:#69A6FF;" d="M214.622,82.149c-0.013,0-0.017-0.003-0.025-0.005c-6.124-0.676-13.73-1.11-13.802-1.112
				c-0.123-0.01-0.217-0.114-0.209-0.234c0.007-0.121,0.115-0.219,0.232-0.21c0.076,0.005,7.693,0.438,13.823,1.117
				c0.121,0.016,0.211,0.124,0.2,0.245C214.827,82.063,214.731,82.149,214.622,82.149z"/>
		</g>
		<g>
			<path style="fill:#120105;" d="M225.541,57.916c-0.819,2.781-1.89,6.561-2.23,8.366c-0.892,4.656-2.883,6.989-6.101,7.142
				c-0.209,0.007-0.453,0.014-0.723,0.014c-4.588,0-17.266-1.36-18.23-2.007c-0.66-0.442-1.709-4.461-2.402-7.62
				c0.062-0.337,0.136-0.666,0.198-0.991c0.694,3.179,1.962,7.914,2.449,8.245c0.751,0.493,14.383,2.124,18.688,1.918
				c3.028-0.147,4.833-2.301,5.684-6.785c0.366-1.924,1.551-6.059,2.387-8.883C225.36,57.508,225.447,57.707,225.541,57.916z"/>
		</g>
		<g>
			<path style="fill:#120105;" d="M231.314,72.427c-0.085,0-0.168-0.052-0.204-0.138c-0.047-0.115,0.01-0.239,0.126-0.287
				c0.736-0.295,6.492-1.166,11.748-0.401c0.119,0.021,0.204,0.13,0.187,0.25c-0.019,0.12-0.136,0.203-0.249,0.187
				c-5.162-0.751-10.889,0.12-11.525,0.373C231.369,72.422,231.346,72.427,231.314,72.427z"/>
		</g>
		<g>
			<path style="fill:#120105;" d="M136.718,160.469c-0.094,0-0.172-0.057-0.202-0.151c-0.042-0.114,0.03-0.245,0.145-0.282
				c0.46-0.146,41.908-2.61,50.211-3.101c0.113-0.016,0.23,0.083,0.234,0.21c0.006,0.12-0.083,0.224-0.208,0.229
				c-17.015,1.008-49.385,2.949-50.115,3.085C136.761,160.469,136.742,160.469,136.718,160.469z"/>
		</g>
		<g>
			<path style="fill:#120105;" d="M210.732,233.275c-0.091,0-0.181-0.063-0.208-0.163c-0.204-0.699-20.156-70.456-20.443-71.275
				c-0.04-0.115,0.021-0.241,0.136-0.282c0.109-0.041,0.238,0.02,0.277,0.135c0.298,0.83,19.63,68.427,20.454,71.303
				c0.032,0.119-0.036,0.24-0.151,0.271C210.775,233.275,210.754,233.275,210.732,233.275z"/>
		</g>
		<g>
			<path style="fill:#120105;" d="M157.334,245.9c-0.109,0-0.209-0.083-0.217-0.198c-0.013-0.12,0.077-0.224,0.198-0.239
				l51.045-5.263c0.124-0.004,0.228,0.079,0.241,0.199c0.015,0.12-0.072,0.229-0.194,0.245l-51.045,5.256
				C157.351,245.9,157.347,245.9,157.334,245.9z"/>
		</g>
		<g>
			<path style="fill:#120105;" d="M151.803,239.606c-0.1,0-0.193-0.068-0.215-0.172l-16.092-76.141
				c-0.025-0.12,0.047-0.235,0.168-0.261c0.121-0.027,0.24,0.052,0.262,0.167l16.089,76.141c0.028,0.12-0.045,0.241-0.166,0.261
				C151.835,239.606,151.818,239.606,151.803,239.606z"/>
		</g>
		<g>
			<path style="fill:#120105;" d="M134.095,217.545c-0.036,0-0.079-0.011-0.117-0.031c-12.155-7.24-27.082-6.405-27.231-6.395
				c-0.128,0.012-0.226-0.083-0.236-0.208c-0.004-0.119,0.087-0.223,0.209-0.23c0.151-0.01,15.215-0.855,27.489,6.452
				c0.104,0.062,0.136,0.198,0.074,0.302C134.239,217.502,134.167,217.545,134.095,217.545z"/>
		</g>
		<path style="fill:#EFB335;" d="M203.527,67.424c-2.058,0-3.239,8.677-2.503,9.118c0.739,0.444,3.381,0.736,4.12,0
			c0.736-0.735,0-7.062,0-8.089C205.144,67.424,203.527,67.424,203.527,67.424z"/>
		<path style="fill:#EFB335;" d="M213.088,68.599c-0.624,0.418-1.03,9.563,0,9.708c1.032,0.149,3.924,0.079,3.679-1.315
			c-0.245-1.393-0.294-7.802-1.028-8.393C215.003,68.009,214.414,67.717,213.088,68.599z"/>
		<g>
			<path style="fill:#120105;" d="M258.547,107.302c-3.481,0-5.437-0.185-5.814-0.545c-1.185-1.148-1.786-24.964-1.039-30.381
				c0.158-1.16,0.343-1.407,0.515-1.501c1.541-0.833,8.914-2.211,14.051-2.211c3.085,0,4.926,0.492,5.464,1.457
				c1.756,3.143,6.322,29.254,5.428,31.045C276.392,106.689,263.71,107.302,258.547,107.302z M266.261,73.108
				c-5.286,0-12.521,1.446-13.842,2.156c-0.041,0.039-0.307,0.405-0.475,3.229c-0.517,8.619,0.338,27.11,1.098,27.946
				c0.04,0.041,0.579,0.422,5.505,0.422c7.609,0,17.709-0.893,18.211-1.892c0.823-1.657-3.784-27.706-5.418-30.632
				C271.025,73.777,269.889,73.108,266.261,73.108z"/>
		</g>
		<path style="fill:#4387FB;" d="M132.299,168.831c-0.502-2.4-0.847-4.202-0.996-5.204c-1.326-8.677,2.671-8.711,9.335-8.826
			c0,0,0.615-0.038,1.713-0.104C143.198,163.11,136.135,167.223,132.299,168.831z"/>
		<path style="fill:#4387FB;" d="M196.641,165.402c-11.361,0.375-15.574-8.91-16.651-12.557c3.024-0.066,5.46-0.059,6.897,0.046
			c7.927,0.59,8.546,7.945,8.546,7.945S195.879,162.52,196.641,165.402z"/>
		<path style="fill:#4387FB;" d="M160.538,246.924c-12.493-0.303-10.714-1.253-11.287-3.565c-0.157-0.621-0.987-4.16-2.226-9.436
			C150.601,234.408,157.789,236.683,160.538,246.924z"/>
		<path style="fill:#4387FB;" d="M208.532,247.038c0,0-0.377,0-1.281,0c-0.817-4.362-1.487-13.935,6.29-17.353
			c1.068,4.182,1.851,7.313,2.198,8.822C217.795,247.623,208.532,247.038,208.532,247.038z"/>
	</g>
	<g>
		<path style="fill:#FBA6B6;" d="M87.914,227.842c-5.56,1.541-12.489-2.057-18.136-5.557c-5.235-3.258-13.338-8.932-14.487-9.74
			c0.9-0.971,1.783-2.151,2.532-3.518c0.07-0.104,0.128-0.183,0.153-0.224c0.309,0.407,8.852,2.953,14.54,5.265
			c5.905,2.396,8.852,4.928,9.452,4.416c0.334-0.287-0.553-3.231-1.409-5.804c-0.342-1.033-0.689-2.015-0.945-2.734
			c1.526-0.231,5.792-0.819,10.585-1.081c0.204,0.402,0.453,1.378,0.679,2.682C91.755,216.605,92.251,226.641,87.914,227.842z"/>
		<path style="fill:#FBA6B6;" d="M115.298,231.266c-2.271,5.943-12.61,23.022-14.368,25.923c-0.909-0.093-1.713-0.062-2.275,0.168
			c-0.068,0.031-0.126,0.063-0.185,0.094c0.289-1.669,2.719-15.668,4.579-21.952c2.692-9.113,7.375-11.421,7.375-15.016
			c0-1.503-3.598-5.543-6.531-8.585c-1.179-1.223-2.249-2.288-2.943-2.96c5.758,0.287,11.827,0.783,13.921,0.955
			c0.43,0.563,0.819,1.127,1.153,1.691C120.371,218.723,117.56,225.348,115.298,231.266z"/>
		<path style="fill:#F97792;" d="M90.2,208.865c0.204,0.402,0.453,1.378,0.679,2.682c-3.356,0.225-8.001,0.632-10.318,1.133
			c-0.342-1.033-0.689-2.015-0.945-2.734C81.141,209.715,85.407,209.126,90.2,208.865z"/>
		<path style="fill:#F97792;" d="M116.026,211.584c-4.145-0.309-9.103,0.031-12.131,0.314c-1.179-1.223-2.249-2.288-2.943-2.96
			c5.758,0.287,11.827,0.783,13.921,0.955C115.303,210.456,115.692,211.02,116.026,211.584z"/>
		<path style="fill:#FBA6B6;" d="M150.89,154.859c0,0,3.339-3.806,4.105-3.43c0.415,0.204-2.049,3.003-2.049,3.003
			s3.592-3.007,3.934-2.5c0.517,0.767-2.311,2.928-2.311,2.928s2.781-1.691,3.126-1.175c0.338,0.516-2.443,2.204-2.185,2.113
			c0.26-0.082,2.394-0.767,2.566-0.425c0.172,0.343-5.814,2.993-5.814,2.993S151.835,155.715,150.89,154.859z"/>
		<path style="fill:#FBA6B6;" d="M119.408,145.192c0,0-2.166,0-2.486,0.853c-0.181,0.478-0.298,0.992-0.51,1.49
			c-0.041,0.116-0.1,0.229-0.162,0.349c-0.438,0.814-1.232,1.529-3.092,1.842c-1.794,0.298-2.911-0.886-3.652-2.253
			c-0.443-0.826-0.751-1.726-0.987-2.396c0.032-0.084,0.059-0.163,0.079-0.253c0.145-0.54,0.27-1.067,0.406-1.561
			c0.434-1.555,0.951-2.797,2.162-3.181c1.358-0.438,5.092-2.244,5.907-4.997c0.451,0.946,0.547,2.25,0.523,3.38
			c-0.004,0.147-0.013,0.287-0.017,0.426c-0.064,1.145-0.23,2.021-0.23,2.021L119.408,145.192z"/>
		<path style="fill:#0E60E0;" d="M67.211,172.657c0.259,0.083,4.707,6.848,8.729,8.726c0,0-4.537,7.699-6.673,8.215
			c-2.141,0.512-5.013-1.299-6.994-2.995c-2.571-2.193-4.643-3.763-2.845-6.331C61.223,177.703,67.211,172.657,67.211,172.657z"/>
		<path style="fill:#FBA6B6;" d="M109.506,147.473c-0.466,0.276-0.977,0.615-1.494,0.981c-1.022,0.733-2.041,1.57-2.705,2.245
			c-0.285-0.079-0.579-0.136-0.875-0.163c-1.426-0.115-2.768-0.147-4.149-0.011c0.751-1.446,1.426-2.38,2.992-2.745
			c1.366-0.323,2.883-0.522,3.969-1.174c0.575-0.354,1.03-0.832,1.275-1.529C108.755,145.748,109.064,146.648,109.506,147.473z"/>
		<path style="fill:#FBA6B6;" d="M109.004,143.272c-0.089,0.311-0.166,0.636-0.253,0.966
			C108.838,143.908,108.921,143.579,109.004,143.272z"/>
		<path style="fill:#160D0F;" d="M108.751,144.238c-0.049,0.195-0.096,0.392-0.149,0.588
			C108.655,144.63,108.702,144.433,108.751,144.238z"/>
		<path style="fill:#0E60E0;" d="M105.716,193.664c-3.539-4.974-8.512-10.647-11.042-12.041c-0.038,0.063-0.06,0.104-0.06,0.104
			c-1.8,0.382-7.828,0.255-10.271-0.453c-2.437-0.706-5.324-1.473-5.324-1.473c-1.883,1.665-4.181,3.893-3.599,11.937
			c0.422,5.911,3.599,18.3,3.599,18.3s0.213-0.036,0.596-0.092c1.526-0.231,5.799-0.826,10.585-1.081
			c1.86-0.104,3.796-0.156,5.673-0.114c1.581,0.036,3.313,0.104,5.079,0.193c5.758,0.282,11.827,0.778,13.921,0.95
			c0.489,0.04,0.766,0.067,0.766,0.067S108.864,198.092,105.716,193.664z"/>
		<path style="fill:#EFB335;" d="M150.89,154.859c0,0-12.125,4.667-19.249,5.882c-7.124,1.222-14.093,0.58-17.953-3.142
			c-3.492-3.361-5.716-6.19-8.38-6.899c-0.285-0.079-0.579-0.136-0.875-0.163c-1.426-0.117-2.768-0.147-4.149-0.007
			c-0.298,0.566-0.606,1.211-0.985,1.933c-1.349,2.567-2.181,6.608-8.148,8.47c-2.115,0.659-3.711,0.669-4.947,0.314
			c-2.862,3.81-6.08,11.619-7.184,18.555c0,0,2.888,0.767,5.324,1.473c2.443,0.708,8.471,0.835,10.271,0.453
			c0,0,0.021-0.042,0.06-0.104c0.515-0.934,4.43-7.96,5.326-9.395c0.966-1.54,2.249-1.477,4.239-1.669
			c1.988-0.194,4.426-2.887,4.75-4.751c0,0,5.518,3.659,13.857,3.914c8.344,0.262,21.028-4.682,29.417-11.357
			C152.263,158.365,152.048,155.652,150.89,154.859z"/>
		<path style="fill:#160D0F;" d="M117.199,133.469c-0.511-3.659-3.398-4.238-4.681-4.493c-1.283-0.256-4.88,0.131-6.227,2.312
			c-1.347,2.181-1.477,5.13-5.518,5.646c-4.045,0.512-7.89,0.384-9.561,3.529c-1.671,3.145-2.245,5.989-4.75,6.845
			c-2.5,0.853-7.124,4.898-4.362,9.966c0.781,1.435,1.841,3.318,4.103,3.972c1.236,0.355,2.832,0.345,4.947-0.314
			c5.967-1.862,6.799-5.903,8.148-8.47c0.379-0.723,0.687-1.367,0.985-1.933c0.751-1.449,1.426-2.383,2.992-2.75
			c2.096-0.494,4.543-0.697,5.243-2.702c0.032-0.084,0.059-0.163,0.083-0.251c0.053-0.197,0.1-0.394,0.149-0.588
			c0.087-0.33,0.164-0.655,0.253-0.966c0.43-1.561,0.945-2.802,2.166-3.194c1.353-0.434,5.088-2.24,5.907-4.993
			C117.231,134.576,117.282,134.039,117.199,133.469z"/>
		<path style="fill:#FBA6B6;" d="M57.97,208.766c-0.009,0.005-0.009,0.021,0.002,0.037C57.997,208.76,58.001,208.739,57.97,208.766z
			"/>
		<path style="fill:#0E60E0;" d="M54.503,209.361c-2.136,1.549-5.086,5.646-4.403,6.331c0.483,0.484,2.886-0.659,5.19-3.147
			c0.9-0.971,1.783-2.151,2.534-3.518c0.045-0.088,0.098-0.171,0.145-0.261C58.261,208.212,56.644,207.81,54.503,209.361z"/>
		<path style="fill:#0E60E0;" d="M100.931,257.189c-0.909-0.093-1.713-0.062-2.275,0.173c-0.068,0.026-0.126,0.058-0.185,0.088
			c-1.6,0.799-1.394,2.573,2.153,2.82c3.679,0.26,7.375,0.26,7.535-0.43C108.285,259.314,104.018,257.508,100.931,257.189z"/>
		<path style="fill:#F97792;" d="M109.506,147.473c-0.466,0.276-0.977,0.615-1.494,0.981c-0.266-0.535-0.528-1.155-0.768-1.848
			c0.575-0.354,1.03-0.832,1.275-1.529C108.755,145.748,109.064,146.648,109.506,147.473z"/>
		<g>
			<path style="fill:#0C0702;" d="M117.705,169.316c-0.008,0-0.025-0.005-0.036-0.005c-9.14-1.801-15.585-7.301-15.732-7.771
				c-0.032-0.104,0.028-0.209,0.126-0.24c0.1-0.031,0.204,0.021,0.236,0.115c0.349,0.6,6.863,5.831,15.442,7.521
				c0.104,0.016,0.172,0.12,0.151,0.224C117.877,169.248,117.792,169.316,117.705,169.316z"/>
		</g>
		<g>
			<path style="fill:#0C0702;" d="M68.903,183.444c-0.813,0-1.43-0.192-1.938-0.605c-1.494-1.205-0.347-9.201,0.068-10.256
				c0.458-1.153,16.76-12.219,18.615-13.476c0.089-0.063,0.209-0.036,0.266,0.052c0.064,0.089,0.036,0.208-0.045,0.266
				c-7.248,4.906-18.149,12.501-18.479,13.299c-0.506,1.284-1.37,8.858-0.187,9.813c1.253,1.013,3.498,0.474,8.061-1.123
				c4.503-1.577,26.831-19.547,27.055-19.728c0.085-0.064,0.204-0.052,0.27,0.031c0.068,0.083,0.053,0.202-0.028,0.27
				c-0.919,0.742-22.605,18.196-27.17,19.792C72.34,182.844,70.325,183.444,68.903,183.444z"/>
		</g>
		<g>
			<path style="fill:#F74669;" d="M116.411,147.536c-0.041,0.116-0.1,0.229-0.162,0.349c-0.815-0.323-1.617-0.93-1.67-0.966
				c-0.079-0.067-0.096-0.187-0.036-0.271c0.068-0.083,0.187-0.098,0.277-0.036C115.111,146.831,115.79,147.287,116.411,147.536z"/>
		</g>
		<g>
			<path style="fill:#0C0702;" d="M117.597,138.465c-0.004,0.147-0.013,0.287-0.017,0.426c-1.185-0.612-3.194,0.414-3.928,0.897
				c-0.036,0.021-0.077,0.037-0.104,0.037c-0.064,0-0.128-0.032-0.164-0.086c-0.062-0.088-0.036-0.211,0.051-0.269
				C113.556,139.394,115.973,137.802,117.597,138.465z"/>
		</g>
		<g>
			<path style="fill:#0E60E0;" d="M106.678,134.301c-0.032,0-0.068-0.007-0.096-0.022c-0.094-0.052-0.126-0.172-0.072-0.265
				c1.315-2.304,2.609-3.572,5.322-3.238c0.104,0.011,0.185,0.107,0.168,0.215c-0.011,0.104-0.109,0.177-0.213,0.166
				c-2.515-0.307-3.679,0.835-4.945,3.048C106.806,134.269,106.746,134.301,106.678,134.301z"/>
		</g>
		<g>
			<path style="fill:#0E60E0;" d="M94.802,142.9c-0.051,0-0.108-0.022-0.145-0.067c-0.068-0.084-0.06-0.204,0.025-0.271
				c0.302-0.253,0.575-0.52,0.834-0.779c0.977-0.965,1.9-1.878,4.324-1.511c0.104,0.016,0.176,0.113,0.159,0.219
				c-0.015,0.109-0.115,0.181-0.219,0.163c-2.234-0.341-3.011,0.43-3.992,1.407c-0.266,0.261-0.545,0.532-0.862,0.798
				C94.892,142.888,94.851,142.9,94.802,142.9z"/>
		</g>
		<g>
			<path style="fill:#0E60E0;" d="M89.506,156.769c-0.058,0-0.115,0-0.172-0.006c-0.104-0.01-0.183-0.104-0.17-0.209
				c0.004-0.108,0.102-0.183,0.206-0.176c1.451,0.13,4.381-1.702,5.586-3.941c0.051-0.095,0.166-0.131,0.262-0.079
				c0.091,0.052,0.128,0.167,0.077,0.262C94.047,154.931,91.144,156.769,89.506,156.769z"/>
		</g>
		<g>
			<path style="fill:#0E60E0;" d="M83.447,154.743c-0.013,0-0.021,0-0.038-0.002c-0.104-0.018-0.172-0.12-0.151-0.224
				c0.241-1.307,1.415-2.022,3.575-2.178c0.094-0.009,0.198,0.067,0.208,0.176c0.004,0.105-0.072,0.199-0.176,0.203
				c-1.968,0.147-3.022,0.757-3.23,1.869C83.62,154.681,83.539,154.743,83.447,154.743z"/>
		</g>
		<g>
			<path style="fill:#0E60E0;" d="M98.592,146.955c-0.098,0-0.181-0.072-0.194-0.171c-0.04-0.399,0.168-0.829,0.602-1.245
				c0.936-0.905,3.005-1.73,4.686-1.49c0.111,0.016,0.183,0.11,0.168,0.217c-0.017,0.106-0.117,0.181-0.221,0.165
				c-1.57-0.224-3.492,0.545-4.366,1.389c-0.241,0.229-0.519,0.579-0.481,0.929c0.011,0.104-0.068,0.198-0.175,0.207
				C98.603,146.955,98.599,146.955,98.592,146.955z"/>
		</g>
		<g>
			<path style="fill:#0C0702;" d="M85.118,226.178c-0.104,0-0.196-0.089-0.196-0.194c0-0.157,0.883-1.821,1.453-1.906
				c0.104-0.015,0.196,0.058,0.213,0.168c0.015,0.104-0.057,0.198-0.162,0.214c-0.272,0.041-1.019,1.299-1.128,1.576
				C85.277,226.119,85.205,226.178,85.118,226.178z"/>
		</g>
		<g>
			<path style="fill:#0C0702;" d="M116.882,219.648c-0.013,0-0.017,0-0.028,0c-0.583-0.074-1.258-1.326-1.387-1.576
				c-0.047-0.095-0.011-0.215,0.085-0.261c0.096-0.048,0.213-0.012,0.26,0.082c0.328,0.637,0.84,1.342,1.09,1.374
				c0.109,0.015,0.183,0.11,0.172,0.214C117.058,219.581,116.973,219.648,116.882,219.648z"/>
		</g>
		<path style="fill:#0C0702;" d="M116.411,140.829c0,0.24-0.198,0.438-0.445,0.438c-0.245,0-0.438-0.199-0.438-0.438
			c0-0.245,0.194-0.444,0.438-0.444C116.213,140.385,116.411,140.584,116.411,140.829z"/>
		<g>
			<path style="fill:#0C0702;" d="M77.481,188.721c-0.079,0-0.147-0.048-0.176-0.12c-0.043-0.099,0.004-0.209,0.1-0.251
				c2.058-0.861,3.656-4.233,3.673-4.269c0.041-0.095,0.155-0.136,0.255-0.095c0.094,0.047,0.134,0.163,0.089,0.255
				c-0.064,0.147-1.674,3.545-3.868,4.463C77.525,188.715,77.504,188.721,77.481,188.721z"/>
		</g>
		<g>
			<path style="fill:#0C0702;" d="M98.588,187.693c-0.036,0-0.068-0.01-0.1-0.026c-0.881-0.543-2.949-2.887-3.184-3.429
				c-0.042-0.095,0.004-0.208,0.104-0.251c0.094-0.042,0.209,0.006,0.251,0.099c0.209,0.486,2.237,2.767,3.028,3.252
				c0.091,0.052,0.117,0.172,0.068,0.262C98.717,187.661,98.652,187.693,98.588,187.693z"/>
		</g>
	</g>
	<g>
		<path style="fill:#FB4568;" d="M375.088,150.72c-2.73,1.532-6.454,6.018-6.739,6.363c-0.009,0.011-0.024,0.031-0.024,0.031
			s-0.293-0.48-0.728-1.137c-0.068-0.104-0.141-0.219-0.213-0.332c-1.028-1.555-2.579-3.747-3.001-3.494
			c-0.215,0.125-0.225,0.702-0.136,1.509c0.145,1.304,0.575,3.215,0.892,4.822c0.079,0.391,0.147,0.767,0.209,1.113
			c0.23,1.319,0.57,4.226,0.841,6.789c0.287,2.547,0.506,4.76,0.506,4.76s-0.057,0.01-0.194,0.02
			c-0.417,0.048-1.607,0.168-4.143,0.287c-0.132,0.005-0.255,0.012-0.392,0.016c-1.424,0.063-3.247,0.131-5.533,0.176
			c-0.108,0.007-0.219,0.012-0.323,0.012h-0.075c-0.619,0.015-1.209,0.031-1.779,0.036c-0.134,0.004-0.266,0.011-0.396,0.011
			c-2.124,0.036-3.898,0.046-5.328,0.041c-0.136,0-0.266,0-0.398-0.005c-2.202-0.011-3.524-0.058-4.035-0.072
			c0,0-2.879-11.891-4.562-17.491c-0.532-1.764-1-3.288-1.339-4.363c-0.257-0.813-0.44-1.369-0.506-1.576
			c-0.457-1.35-1.417-1.477-3.279-0.708c-0.902,0.368-2.332,0.885-3.56,1.302c-0.14,0.047-0.287,0.1-0.423,0.146
			c-1.085,0.371-1.919,0.643-1.945,0.653c0.281-3.273-1.055-9.662-1.055-9.662s0.743-0.349,1.896-0.874
			c0.113-0.05,0.234-0.102,0.353-0.158c2.428-1.095,6.358-2.798,9.365-3.806c0.536-0.183,1.038-0.344,1.492-0.488
			c0.247-0.07,0.47-0.143,0.685-0.206c0.553-0.156,1.111-0.303,1.683-0.433c1.494-0.35,3.056-0.611,4.684-0.762
			c0.13-0.016,0.255-0.027,0.389-0.032c1.652-0.136,3.362-0.156,5.126-0.052c0.126,0.01,0.245,0.016,0.377,0.025
			c0.715,0.052,1.447,0.131,2.177,0.228c0.834,0.112,1.664,0.253,2.464,0.426c1.126,0.231,2.204,0.525,3.234,0.874
			c0.409,0.138,0.798,0.287,1.183,0.446c2.407,0.977,4.422,2.308,5.786,4.029c1.811,2.308,4.503,7.245,5.88,9.85
			c0.068,0.119,0.132,0.234,0.185,0.346C374.829,150.203,375.088,150.72,375.088,150.72z"/>
		<path style="fill:#FBA6B6;" d="M368.326,157.113c0.683,1.622,5.639,10.266,9.065,15.231c3.424,4.957,6.42,9.238,6.673,10.093
			c0.258,0.856-0.253,3.168,0,3.168c0.258,0,1.37-2.055,1.37-2.055s-0.602,3.935,0,4.107c0.598,0.171,1.028-2.824,1.028-2.824
			s0.345,4.536,1.113,4.28c0.77-0.262,0-4.192,0-4.192s0.683,3.075,1.453,2.647c0.768-0.423-0.77-3.763-0.77-3.763
			s0.943,1.967,1.628,1.283c0.683-0.683-2.23-6.158-2.23-6.158s-4.701-13.518-7.186-18.571c-2.479-5.046-5.558-9.922-5.558-9.922
			s-1.968,1.54-3.598,3.079C369.692,155.056,368.326,157.113,368.326,157.113z"/>
		<path style="fill:#0C3673;" d="M354.956,115.505c-1.349-2.438-2.315-3.785-6.162-4.17c-3.852-0.387-3.852-0.321-4.88,0
			c-1.321,0.412-2.375,3.47-0.387,5.041c1.994,1.568,3.222,1.589,5.867,1.185c2.651-0.408,2.992,1.215,3.441,2.374
			c0.447,1.153,0.385,3.018,0.579,3.079c0.194,0.063,1.23-0.556,1.543-1.048C355.271,121.477,356.309,117.945,354.956,115.505z"/>
		<path style="fill:#FBA6B6;" d="M327.431,139.967c-7.322,3.454-10.34-1.091-12.844-5.068c-4.49-7.137-9.41-14.579-9.41-14.579
			s-0.858-3.593-1.541-3.593c-0.683,0-0.255,2.309-0.255,2.309s-2.741-1.709-3.251-1.369c-0.513,0.344,2.311,2.395,2.311,2.395
			s-3.422-1.712-3.8-1.112c-0.253,0.413,0.94,1.185,1.719,1.629c0.362,0.171,0.626,0.339,0.626,0.339s-0.272-0.136-0.626-0.339
			c-0.526-0.253-1.249-0.514-1.615-0.259c-0.453,0.315,0.702,1.281,1.339,1.767c0.223,0.151,0.392,0.287,0.392,0.287
			s-0.168-0.116-0.392-0.287c-0.449-0.303-1.153-0.684-1.322-0.227c-0.262,0.683,3.081,2.736,3.081,2.736s4.617,8.9,6.756,13.864
			c2.141,4.961,5.05,10.95,9.073,11.978c3.641,0.929,8.982-0.005,10.814-0.812C328.767,146.353,327.441,140.02,327.431,139.967z"/>
		<path style="fill:#FBA6B6;" d="M300.083,122.087c0.223,0.172,0.392,0.287,0.392,0.287S300.306,122.238,300.083,122.087z"/>
		<path style="fill:#FBA6B6;" d="M300.359,120.578c0.353,0.203,0.626,0.339,0.626,0.339S300.721,120.75,300.359,120.578z"/>
		<path style="fill:#70A6FF;" d="M397.557,196.552c0,0-9.108,14.692-13.666,19.192c-4.556,4.488-8.408,3.335-10.395,1.989
			c-1.983-1.352-5.007-8.346-7.631-14.699c-2.634-6.351-6.612-18.093-7.186-17.643c-0.585,0.444-2.766,27.274-3.149,30.608
			c-0.385,3.34,0,7.636,0,12.641c0,5.006-2.89,18.799-4.037,19.311c-1.166,0.517-3.99-0.575-3.99-0.575s-1.66-30.287-1.856-39.076
			c-0.128-5.835-0.764-20.039-1.181-28.943c-0.004-0.167-0.011-0.324-0.021-0.48c-0.198-4.27-0.341-7.208-0.345-7.213
			c0.511,0.015,1.832,0.062,4.035,0.072c0.132,0.005,0.262,0.005,0.398,0.005c1.43,0.004,3.205-0.005,5.328-0.041
			c0.13,0,0.262-0.006,0.396-0.011c0.57-0.005,1.16-0.021,1.779-0.036h0.075c0.104,0,0.215-0.005,0.323-0.012
			c2.285-0.046,4.109-0.114,5.533-0.176c0.136-0.004,0.259-0.011,0.392-0.016c2.536-0.119,3.726-0.24,4.143-0.287
			c0.392,1.014,1.602,4.16,2.949,7.715c0.051,0.136,0.104,0.266,0.155,0.408c1.688,4.473,3.539,9.478,4.213,11.623
			c1.347,4.301,3.783,14.633,4.813,15.013c1.023,0.386,1.983,0.774,6.675-3.914c4.681-4.681,11.031-10.389,11.031-10.389
			l0.247,1.002l0.11,0.428L397.557,196.552z"/>
		<path style="fill:#FB4568;" d="M343.852,171.654c0,0,0.089,0.004,0.249,0.011L343.852,171.654z"/>
		<path style="fill:#0E60E0;" d="M364.385,152.15c-0.215,0.125-0.225,0.702-0.136,1.509c0.145,1.304,0.575,3.215,0.892,4.822
			c0.079,0.391,0.147,0.767,0.209,1.113c0.225,1.319,0.566,4.226,0.847,6.795c2.749-0.95,2.913-2.849,2.426-7.375
			c-0.064-0.564-0.155-1.215-0.272-1.935c-0.009,0.016-0.024,0.036-0.024,0.036S365.027,151.763,364.385,152.15z"/>
		<path style="fill:#0E60E0;" d="M342.905,134.003c3.833-0.9,8.118-1.209,12.753-0.593c0.834,0.112,1.664,0.253,2.464,0.426
			c1.126,0.231,2.204,0.525,3.234,0.874c0.409,0.138,0.798,0.289,1.183,0.446c-2.29-3.948-9.721-5.607-15.16-4.76
			c-5.069,0.79-6.254,2.486-6.837,4.247c0.232-0.072,0.464-0.143,0.679-0.206C341.775,134.279,342.333,134.132,342.905,134.003z"/>
		<path style="fill:#0E60E0;" d="M342.905,134.003c-0.572,1.292-1.587,3.818-2.07,6.656c-0.538,3.116-1.07,10.253-1.296,13.516
			c-0.532-1.764-1-3.288-1.339-4.363c-0.049-3.79-0.2-9.708,0.845-14.682c0.815-0.276,1.549-0.511,2.177-0.694
			C341.775,134.279,342.333,134.132,342.905,134.003z"/>
		<path style="fill:#0E60E0;" d="M365.14,158.48c-2.745-2.192-5.46-8.478-6.273-12.493c-0.783-3.848-1.034-9.117-0.745-12.152
			c1.126,0.231,2.204,0.525,3.234,0.874c-0.287,2.43-0.862,8.276-0.115,11.475c0.523,2.229,1.872,5.208,3.007,7.474
			C364.393,154.963,364.823,156.874,365.14,158.48z"/>
		<path style="fill:#FBA6B6;" d="M354.956,121.967c-0.313,0.492-1.349,1.111-1.543,1.048c-0.194-0.062-0.132-1.926-0.579-3.079
			c-0.449-1.159-0.789-2.781-3.441-2.374c-2.645,0.403-3.873,0.383-5.867-1.185c-1.92,2.722-3.554,9.296-0.96,11.728
			c1.336,1.255,3.352,2.097,5.267,2.014c1.136-0.048,2.245-0.419,3.154-1.232c0.698-0.618,1.277-1.489,1.675-2.664
			c0,0,3.166-0.598,4.022-2.31C357.318,122.653,356.137,121.768,354.956,121.967z"/>
		<g>
			<path style="fill:#FBA6B6;" d="M350.1,135.374c-0.706,0.079-1.243-1.053-1.634-2.368c-0.298-1.013-0.507-2.125-0.632-2.887
				c1.143-0.048,2.245-0.419,3.154-1.232c0.045,0.668,0.092,1.508,0.098,2.362C351.111,133.234,350.928,135.289,350.1,135.374z"/>
			<path style="fill:#F97792;" d="M351.085,131.249c-0.753,0.66-1.691,1.376-2.619,1.757c-0.298-1.013-0.507-2.125-0.632-2.887
				c1.143-0.048,2.245-0.419,3.154-1.232C351.032,129.555,351.079,130.395,351.085,131.249z"/>
		</g>
		<g>
			<path style="fill:#0C0702;" d="M330.855,148.83c-0.14,0.047-0.287,0.1-0.423,0.146c0.768-3.882-0.426-8.004-1.104-9.882
				c0.113-0.05,0.234-0.102,0.353-0.158C330.355,140.808,331.555,144.905,330.855,148.83z"/>
		</g>
		<g>
			<path style="fill:#0C0702;" d="M353.481,133.182c-0.036,1.162-0.319,2.913-1.096,3.986c-0.498,0.679-1.113,1.014-1.836,1.014
				c-0.128,0-0.247-0.01-0.372-0.023c-1.351-0.201-2.217-1.229-2.5-2.978c-0.123-0.742-0.119-1.459-0.087-1.941
				c0.13-0.016,0.255-0.027,0.389-0.032c-0.03,0.464-0.04,1.188,0.081,1.916c0.259,1.587,0.985,2.478,2.177,2.652
				c0.728,0.104,1.345-0.173,1.83-0.826c0.758-1.036,1.006-2.73,1.038-3.794C353.23,133.166,353.349,133.173,353.481,133.182z"/>
		</g>
		<g>
			<path style="fill:#0C0702;" d="M353.298,125.132c-0.026,0-0.058-0.008-0.083-0.018c-0.096-0.05-0.136-0.165-0.089-0.261
				c0.658-1.326,1.943-1.979,1.998-2.005c0.094-0.047,0.211-0.011,0.258,0.084c0.045,0.096,0.009,0.213-0.085,0.26
				c-0.015,0.005-1.226,0.627-1.826,1.833C353.439,125.093,353.371,125.132,353.298,125.132z"/>
		</g>
		<g>
			<path style="fill:#0C0702;" d="M342.99,126.231c-0.047,0-0.089-0.006-0.125-0.014c-0.09-0.018-0.158-0.076-0.198-0.16
				c-0.2-0.408,0.375-1.806,1.581-4.412c0.23-0.494,0.428-0.916,0.517-1.141c0.083-0.217,0.064-0.4-0.068-0.555
				c-0.33-0.397-1.27-0.541-2.234-0.342c-0.108,0.023-0.209-0.045-0.23-0.146c-0.019-0.104,0.049-0.209,0.153-0.23
				c1.13-0.232,2.181-0.045,2.607,0.47c0.221,0.266,0.266,0.6,0.125,0.949c-0.093,0.23-0.281,0.639-0.521,1.156
				c-0.496,1.073-1.639,3.542-1.592,4.042c0.37,0,1.305-0.604,1.883-1.058c0.085-0.068,0.204-0.052,0.272,0.031
				c0.062,0.084,0.053,0.204-0.036,0.268C344.874,125.291,343.648,126.231,342.99,126.231z"/>
		</g>
		<g>
			<path style="fill:#0C0702;" d="M347.766,121.11c-0.068,0-0.13-0.031-0.168-0.089c-0.051-0.09-0.026-0.208,0.064-0.265
				c0.068-0.043,1.617-1,2.986,0.007c0.083,0.063,0.104,0.185,0.042,0.269c-0.064,0.086-0.183,0.104-0.272,0.04
				c-1.153-0.852-2.536,0-2.551,0.008C347.833,121.1,347.797,121.11,347.766,121.11z"/>
		</g>
		<g>
			<path style="fill:#0C0702;" d="M345.167,127.707c-0.258,0-0.475-0.03-0.632-0.052c-0.072-0.01-0.132-0.02-0.172-0.02
				c-0.104,0-0.194-0.086-0.194-0.192c0-0.104,0.089-0.195,0.194-0.195c0.051,0,0.125,0.012,0.225,0.028
				c0.411,0.056,1.172,0.167,1.909-0.371c0.083-0.065,0.204-0.047,0.268,0.039c0.06,0.085,0.045,0.206-0.045,0.268
				C346.178,127.614,345.616,127.707,345.167,127.707z"/>
		</g>
		<g>
			<path style="fill:#0C0702;" d="M374.39,149.38c-2.064,1.673-5.503,5.243-6.792,6.596c-0.068-0.104-0.141-0.219-0.213-0.332
				c1.347-1.421,4.756-4.951,6.82-6.609C374.273,149.153,374.337,149.268,374.39,149.38z"/>
		</g>
		<g>
			<path style="fill:#0C0702;" d="M357.452,177.719c0.006,0.058-0.004,0.114-0.036,0.156c-0.036,0.041-0.089,0.068-0.147,0.068
				h-0.036c-1.549,0-2.677-3.31-3.371-6.242c0.13,0,0.262-0.006,0.396-0.011c0.83,3.491,1.828,5.574,2.771,5.845l-0.992-5.882h0.075
				c0.104,0,0.215-0.005,0.323-0.012L357.452,177.719z"/>
		</g>
		<g>
			<path style="fill:#0C0702;" d="M348.534,171.743c-0.311,1.744-1.285,5.538-4.066,7.615c-0.004-0.167-0.011-0.324-0.021-0.48
				c2.453-1.989,3.377-5.475,3.69-7.14C348.268,171.743,348.397,171.743,348.534,171.743z"/>
		</g>
		<path style="fill:#0C0702;" d="M396.697,193.048c-2.362,2.26-6.552,6.291-9.139,8.97c-1.545,1.597-3.075,3.36-4.433,4.915
			c-2.483,2.865-3.449,3.936-3.949,3.936c-0.021,0-0.036,0-0.057-0.006c-0.909-0.172-4.937-9.87-6.765-15.405
			c-1.936-5.866-4.592-15.699-4.869-16.706c-0.775-0.334-1.498-0.804-2.168-1.419c-1.973-1.822-2.958-4.453-3.349-5.867
			c0.136-0.004,0.259-0.011,0.392-0.016c0.406,1.41,1.419,4.029,3.383,5.747c1.083,0.955,2.337,1.518,3.709,1.681
			c0.051,0.136,0.104,0.266,0.155,0.408c-0.583-0.052-1.136-0.179-1.674-0.362c0.517,1.907,2.971,10.909,4.788,16.416
			c2.073,6.281,5.803,14.799,6.488,15.149c0.349-0.02,2.013-1.947,3.63-3.805c1.358-1.561,2.892-3.33,4.447-4.938
			c2.647-2.734,6.969-6.898,9.301-9.126L396.697,193.048z"/>
		<g>
			<path style="fill:#0C0702;" d="M375.616,214.266c-0.096,0-0.172-0.068-0.189-0.161c-0.136-0.721-0.011-1.807-0.004-1.854
				c0.017-0.105,0.104-0.183,0.215-0.167c0.104,0.01,0.183,0.11,0.172,0.214c-0.004,0.011-0.126,1.07-0.004,1.739
				c0.019,0.104-0.049,0.203-0.153,0.224C375.637,214.266,375.624,214.266,375.616,214.266z"/>
		</g>
		<g>
			<path style="fill:#0C0702;" d="M348.987,216.255c-0.076,0-0.153-0.047-0.181-0.119c-0.232-0.58-0.947-1.066-0.958-1.07
				c-0.087-0.058-0.108-0.178-0.051-0.267c0.062-0.088,0.181-0.109,0.266-0.052c0.036,0.022,0.823,0.554,1.1,1.243
				c0.036,0.099-0.009,0.214-0.109,0.25C349.034,216.251,349.006,216.255,348.987,216.255z"/>
		</g>
		<g>
			<path style="fill:#0C0702;" d="M350.589,248.212c-0.011,0-0.021,0-0.028,0c-0.108-0.02-0.181-0.114-0.166-0.218
				c0.021-0.142,2.062-14.056,2.701-19.887c0.281-2.609,0.425-5.078,0.579-7.693c0.191-3.298,0.389-6.717,0.892-10.809
				c0.787-6.415,3.356-23.584,3.956-24.339c0.068-0.079,0.189-0.095,0.27-0.027c0.085,0.063,0.1,0.183,0.032,0.266
				c-0.462,0.694-2.9,16.209-3.873,24.147c-0.5,4.081-0.698,7.489-0.891,10.788c-0.158,2.615-0.302,5.089-0.585,7.704
				c-0.636,5.84-2.677,19.765-2.696,19.902C350.766,248.144,350.683,248.212,350.589,248.212z"/>
		</g>
		<path style="fill:#0C0702;" d="M347.766,122.374c0,0.26-0.213,0.468-0.47,0.468c-0.26,0-0.475-0.208-0.475-0.468
			c0-0.262,0.215-0.47,0.475-0.47C347.553,121.904,347.766,122.113,347.766,122.374z"/>
		<path style="fill:#0C0702;" d="M343.375,120.918c0,0.26-0.209,0.469-0.47,0.469c-0.259,0-0.468-0.21-0.468-0.469
			c0-0.261,0.208-0.47,0.468-0.47C343.167,120.448,343.375,120.657,343.375,120.918z"/>
		<path style="fill:#0E60E0;" d="M396.112,191.821c0.553-0.719,1.319-1.555,1.768-0.402c0.449,1.16,2.505,8.407,2.056,9.242
			c-0.447,0.835-2.628-2.75-3.339-4.907C395.891,193.601,396.112,191.821,396.112,191.821z"/>
		<path style="fill:#0E60E0;" d="M347.766,247.06c-1.592,0.301-5.971,2.113-5.971,2.817c0,0.71,9.69-0.657,10.142-1.195
			C352.385,248.151,350.793,246.475,347.766,247.06z"/>
	</g>
</g>
</svg>
